Coordinates
version=1
nRows=12
nColumns=33
inDegrees=yes

Units are S.I. units (second, meters, Newtons, ...)
Angles are in degrees.

endheader
time	ground_thorax_rot_x	ground_thorax_rot_y	ground_thorax_rot_z	ground_thorax_tx	ground_thorax_ty	ground_thorax_tz	clav_prot_r	clav_elev_r	scapula_abduction_r	scapula_elevation_r	scapula_upward_rot_r	scapula_winging_r	shoulder_elv_r	plane_of_elev_r	axial_rot_r	elbow_flexion_r	pro_sup_r	wrist_flex_r	wrist_dev_r	clav_prot_l	clav_elev_l	scapula_abduction_l	scapula_elevation_l	scapula_upward_rot_l	scapula_winging_l	shoulder_elv_l	plane_of_elev_l	axial_rot_l	elbow_flexion_l	pro_sup_l	wrist_flex_l	wrist_dev_l
      5.68000000	    -37.67050789	    -11.67463558	     20.75322544	   -265.28664711	    828.57494908	     10.74532557	      7.02300413	    -45.00000000	     36.62642890	    -45.00000000	    -41.70561155	   2056.14107320	  -2627.21715915	    146.48100734	   -116.37664635	   1096.03513994	     57.79993818	     15.13601067	      1.95849871	     13.42191003	     36.86566914	    -32.92110207	    -45.00000000	    -45.00000000	  -2075.43784122	    987.96600241	    135.65089707	   -179.99999979	    732.20997474	     51.28509462	      1.19711366	    -19.95794619
      5.69000000	    -37.68975034	    -11.65386206	     20.81334131	   -265.28091369	    828.35327600	     10.81920438	      6.83689313	    -45.00000000	     36.34291989	    -45.00000000	    -42.26926524	   2056.13115793	  -2627.20320727	    146.28914036	   -116.33610614	   1096.09300478	     58.57484798	     14.89136403	      1.33192340	     13.27587530	     36.82463605	    -33.06415905	    -45.00000000	    -45.00000000	  -2075.40470020	    987.87484213	    135.68490926	   -179.99999979	    732.27929998	     52.21387906	      1.01224779	    -19.90754693
      5.70000000	    -37.64850472	    -11.75698565	     20.84964464	   -265.22135988	    828.14351794	     10.89164050	      6.88385858	    -45.00000000	     36.49119958	    -45.00000000	    -42.18278734	   2056.16578904	  -2627.17989250	    146.36945501	   -116.55367063	   1096.25917715	     59.36727894	     14.94466748	      1.83136401	     13.42660561	     36.86647295	    -32.90553651	    -45.00000000	    -45.00000000	  -2075.45637337	    987.95488319	    135.63583352	   -179.99999979	    732.38407919	     53.03691451	      0.98011992	    -19.84581956
      5.71000000	    -37.72170993	    -11.67644016	     20.78818227	   -265.11337806	    827.94549326	     10.96030667	      6.93399661	    -45.00000000	     36.36782320	    -45.00000000	    -42.35615599	   2056.11993059	  -2627.22170009	    146.31820065	   -116.55806120	   1096.25006219	     60.13866345	     14.76140074	      1.35916440	     13.27419361	     36.80413493	    -33.06432878	    -45.00000000	    -45.00000000	  -2075.42234867	    987.83344480	    135.71575395	   -179.99999979	    732.46090384	     53.73737427	      0.82780015	    -19.75315603
      5.72000000	    -37.66178548	    -11.83465422	     20.89757428	   -264.96553635	    827.76121741	     11.02215235	      6.86665197	    -45.00000000	     36.46018728	    -45.00000000	    -42.32634742	   2056.16201012	  -2627.19723367	    146.38337410	   -116.63243616	   1096.44753491	     60.91606093	     14.80411223	      1.75634434	     13.43491709	     36.87368019	    -32.84168807	    -45.00000000	    -45.00000000	  -2075.48050021	    987.93745396	    135.62264321	   -179.99999979	    732.53703072	     54.36863513	      0.80466562	    -19.71760202
      5.73000000	    -37.72175824	    -11.71624628	     20.80476643	   -264.78264728	    827.58639789	     11.07641174	      6.96737629	    -45.00000000	     36.36686250	    -45.00000000	    -42.35976349	   2056.14888557	  -2627.27777468	    146.28432817	   -116.69524305	   1096.43149981	     61.66394383	     14.61479496	      1.36718968	     13.26036922	     36.77814390	    -33.11274180	    -45.00000000	    -45.00000000	  -2075.47303177	    987.77412072	    135.71607832	   -179.99999979	    732.61432831	     54.89123151	      0.69285030	    -19.63000458
      5.74000000	    -37.64503564	    -11.94349069	     20.97865343	   -264.57593465	    827.42495197	     11.12005485	      6.84055107	    -45.00000000	     36.48873669	    -45.00000000	    -42.36598618	   2056.21152201	  -2627.17542881	    146.39766307	   -116.71217678	   1096.60901695	     62.39484170	     14.70698648	      1.73151274	     13.48880422	     36.90583612	    -32.75219514	    -45.00000000	    -45.00000000	  -2075.51232351	    987.96262820	    135.56309641	   -179.99999979	    732.65062409	     55.34497057	      0.67357124	    -19.59028744
      5.75000000	    -37.76716722	    -11.67822152	     20.77267718	   -264.35019546	    827.27402031	     11.15296463	      7.01909431	    -45.00000000	     36.32684018	    -45.00000000	    -42.35342594	   2056.10099582	  -2627.33349413	    146.25158478	   -116.80091477	   1096.56912569	     63.09424933	     14.46609078	      1.35043507	     13.18432061	     36.72230561	    -33.23340398	    -45.00000000	    -45.00000000	  -2075.51999883	    987.63558917	    135.74983195	   -179.99999979	    732.75951951	     55.71442000	      0.59486096	    -19.53944280
      5.76000000	    -37.75593906	    -11.89685001	     20.86043998	   -264.10793276	    827.13134341	     11.17485962	      6.91704062	    -45.00000000	     36.39020296	    -45.00000000	    -42.31930777	   2056.15521499	  -2627.23162301	    146.26803953	   -116.80494119	   1096.76541189	     63.94386511	     14.52832795	      1.58759868	     13.33799170	     36.84549810	    -32.98719777	    -45.00000000	    -45.00000000	  -2075.50916934	    987.81641171	    135.68584774	   -179.99999979	    732.79168652	     56.10389909	      0.56301841	    -19.49889954
      5.77000000	    -37.72805391	    -12.01368573	     20.93602956	   -263.85866611	    826.99984194	     11.18488197	      6.88720729	    -45.00000000	     36.47810301	    -45.00000000	    -42.31481330	   2056.23760549	  -2627.22744109	    146.37219993	   -116.85642419	   1096.73843614	     64.59834524	     14.42139441	      1.45336312	     13.42091614	     36.79930703	    -32.89817651	    -45.00000000	    -45.00000000	  -2075.48651791	    987.80547859	    135.59056540	   -179.99999979	    732.74617903	     56.35782492	      0.52664081	    -19.39854461
      5.78000000	    -37.79773446	    -11.86918972	     20.82165436	   -263.59823935	    826.87573107	     11.18310933	      6.98144273	    -45.00000000	     36.33046818	    -45.00000000	    -42.28585210	   2056.12021097	  -2627.23694749	    146.18486943	   -116.85020282	   1096.96413861	     65.23763137	     14.47013675	      1.58052343	     13.28829647	     36.86236020	    -33.05224365	    -45.00000000	    -45.00000000	  -2075.59313499	    987.77554555	    135.71209057	   -179.99999979	    732.92608597	     56.55506279	      0.49329510	    -19.43450382
      5.79000000	    -37.75814990	    -12.12064861	     20.95337874	   -263.32967875	    826.75959251	     11.16915223	      6.83694071	    -45.00000000	     36.53797640	    -45.00000000	    -42.24707482	   2056.24053644	  -2627.19428158	    146.40550481	   -116.93136543	   1097.00209466	     65.90367737	     14.32971894	      1.40505486	     13.47144041	     36.78703410	    -32.84862018	    -45.00000000	    -45.00000000	  -2075.40975214	    987.80831173	    135.49112539	   -179.99999979	    732.88544651	     56.73443992	      0.45128018	    -19.31148432
